<?xml version="1.0" encoding="utf-8"?>
<!-- Generator: Adobe Illustrator 24.3.0, SVG Export Plug-In . SVG Version: 6.00 Build 0)  -->
<svg version="1.1" id="Layer_1" xmlns="http://www.w3.org/2000/svg" xmlns:xlink="http://www.w3.org/1999/xlink" x="0px" y="0px"
	 viewBox="0 0 32 5.31" style="enable-background:new 0 0 32 5.31;" xml:space="preserve">
<style type="text/css">
	.st0{fill:#FFFFFF;}
	.st1{fill:#6CF0A8;}
</style>
<path class="st0" d="M4.14,5.02H2.86L1.54,3.08C1.52,3.06,1.51,3.03,1.49,2.99c-0.02-0.04-0.04-0.1-0.07-0.16H1.4v2.19H0.37V0.47
	H1.4v2.11h0.02c0.01-0.03,0.03-0.07,0.05-0.11c0.02-0.04,0.05-0.09,0.08-0.15L2.8,0.47h1.19L2.43,2.62L4.14,5.02z"/>
<path class="st0" d="M7.2,5.02H6.25V4.55H6.24c-0.11,0.18-0.24,0.32-0.4,0.41C5.67,5.06,5.49,5.1,5.28,5.1
	C5,5.1,4.76,5.01,4.56,4.84c-0.2-0.17-0.3-0.41-0.3-0.73c0-0.3,0.1-0.55,0.3-0.74c0.2-0.19,0.51-0.31,0.94-0.37l0.77-0.1V2.84
	c0-0.15-0.05-0.27-0.15-0.35c-0.1-0.08-0.24-0.12-0.41-0.12c-0.13,0-0.28,0.02-0.45,0.07c-0.16,0.04-0.33,0.12-0.5,0.21L4.41,2.06
	c0.22-0.13,0.44-0.22,0.66-0.28c0.22-0.06,0.46-0.09,0.72-0.09c0.48,0,0.84,0.12,1.07,0.35C7.08,2.27,7.2,2.62,7.2,3.08V5.02z
	 M6.26,3.7V3.48L5.67,3.56C5.5,3.58,5.38,3.63,5.3,3.71C5.22,3.78,5.18,3.88,5.18,4c0,0.11,0.04,0.21,0.12,0.28
	c0.08,0.07,0.19,0.11,0.32,0.11c0.19,0,0.34-0.07,0.46-0.2C6.2,4.06,6.26,3.9,6.26,3.7z"/>
<path class="st0" d="M7.67,4.74l0.41-0.67c0.11,0.08,0.24,0.16,0.39,0.22c0.15,0.06,0.32,0.09,0.5,0.09c0.13,0,0.24-0.02,0.32-0.07
	C9.37,4.26,9.41,4.19,9.41,4.1c0-0.07-0.03-0.13-0.09-0.18C9.26,3.88,9.14,3.84,8.96,3.8c-0.4-0.08-0.7-0.2-0.88-0.36
	S7.81,3.07,7.81,2.78c0-0.33,0.13-0.59,0.4-0.79c0.26-0.2,0.59-0.3,0.97-0.3c0.2,0,0.39,0.03,0.57,0.08C9.92,1.82,10.08,1.9,10.23,2
	L9.86,2.64C9.73,2.56,9.6,2.5,9.49,2.46C9.37,2.42,9.25,2.4,9.13,2.4C9,2.4,8.9,2.43,8.82,2.48C8.74,2.52,8.7,2.59,8.7,2.66
	c0,0.09,0.04,0.15,0.12,0.19c0.08,0.04,0.22,0.08,0.44,0.12c0.38,0.08,0.65,0.2,0.81,0.36c0.16,0.16,0.24,0.38,0.24,0.66
	c0,0.33-0.13,0.6-0.38,0.81C9.67,5,9.34,5.1,8.93,5.1c-0.23,0-0.44-0.03-0.65-0.09C8.07,4.95,7.87,4.86,7.67,4.74z"/>
<path class="st0" d="M11.36,1.32c-0.17,0-0.32-0.05-0.43-0.16c-0.11-0.11-0.17-0.24-0.17-0.39c0-0.16,0.05-0.3,0.17-0.4
	c0.11-0.1,0.25-0.15,0.43-0.15c0.18,0,0.32,0.05,0.43,0.15c0.11,0.1,0.16,0.24,0.16,0.4c0,0.16-0.05,0.3-0.16,0.4
	S11.54,1.32,11.36,1.32z M11.86,5.02h-1V1.77h1V5.02z"/>
<path class="st1" d="M12.31,5.02l1.66-4.55h1.22l1.62,4.55h-1.12l-0.31-0.95h-1.65l-0.3,0.95H12.31z M13.95,3.27h1.19l-0.5-1.58
	c-0.02-0.06-0.03-0.12-0.05-0.16s-0.02-0.1-0.03-0.17h-0.03c-0.01,0.06-0.02,0.12-0.03,0.17s-0.03,0.1-0.05,0.16L13.95,3.27z"/>
<path class="st1" d="M18.4,5.02h-1.03V0.47h1.03V5.02z"/>
<path class="st0" d="M23.37,5.02h-1.03V3.17h-1.88v1.85h-1.03V0.47h1.03v1.82h1.88V0.47h1.03V5.02z"/>
<path class="st0" d="M27.4,5.02h-1v-0.5h-0.02c-0.12,0.19-0.27,0.33-0.43,0.43c-0.17,0.1-0.35,0.14-0.56,0.14
	c-0.38,0-0.66-0.11-0.85-0.34s-0.28-0.57-0.28-1.02V1.77h1v1.87c0,0.23,0.05,0.4,0.14,0.52c0.09,0.12,0.23,0.17,0.41,0.17
	c0.18,0,0.32-0.06,0.43-0.19c0.11-0.13,0.16-0.3,0.16-0.51V1.77h1V5.02z"/>
<path class="st0" d="M29.26,4.64h-0.01v0.38h-1V0.21h1v2.05h0.01c0.12-0.19,0.27-0.33,0.45-0.43c0.18-0.1,0.38-0.14,0.61-0.14
	c0.42,0,0.74,0.14,0.97,0.43c0.23,0.29,0.34,0.68,0.34,1.18c0,0.54-0.13,0.98-0.4,1.31S30.61,5.1,30.17,5.1
	c-0.2,0-0.37-0.04-0.53-0.11S29.36,4.8,29.26,4.64z M29.23,3.27v0.33c0,0.21,0.06,0.38,0.18,0.52c0.12,0.14,0.28,0.21,0.46,0.21
	c0.23,0,0.41-0.09,0.53-0.26c0.12-0.18,0.19-0.43,0.19-0.75c0-0.27-0.06-0.48-0.17-0.63c-0.12-0.15-0.28-0.23-0.49-0.23
	c-0.2,0-0.37,0.08-0.5,0.23C29.3,2.84,29.23,3.03,29.23,3.27z"/>
</svg>
