<?xml version="1.0" encoding="utf-8"?>
<!-- Generator: Adobe Illustrator 24.3.0, SVG Export Plug-In . SVG Version: 6.00 Build 0)  -->
<svg version="1.1" id="Layer_1" xmlns="http://www.w3.org/2000/svg" xmlns:xlink="http://www.w3.org/1999/xlink" x="0px" y="0px"
	 viewBox="0 0 32 32" style="enable-background:new 0 0 32 32;" xml:space="preserve">
<style type="text/css">
	.st0{fill:#0F172A;}
	.st1{fill:#10B981;}
</style>
<path class="st0" d="M27.45,32H4.55C2.04,32,0,29.96,0,27.45V4.55C0,2.04,2.04,0,4.55,0h22.89C29.96,0,32,2.04,32,4.55v22.89
	C32,29.96,29.96,32,27.45,32z"/>
<g>
	<path class="st1" d="M12.01,9.06L7.22,22.94h2.57l1.22-3.53h5.23l1.28,3.53h2.75l-5-13.88H12.01z M11.58,17.25
		c0.89-2.71,1.62-4.95,1.96-6.25h0.02c0.32,1.18,0.99,3.08,2.09,6.25H11.58z"/>
	<rect x="22.18" y="9.06" class="st1" width="2.6" height="13.88"/>
</g>
</svg>
